<svg width="40" height="40" viewBox="0 0 40 40" fill="none" xmlns="http://www.w3.org/2000/svg">
<path d="M17.7778 2.22223C17.7778 2.22223 17.7778 5.72205e-06 20.0001 5.72205e-06C22.2223 5.72205e-06 22.2223 2.22223 22.2223 2.22223V4.44445C22.2223 4.44445 22.2223 6.66667 20.0001 6.66667C17.7778 6.66667 17.7778 4.44445 17.7778 4.44445V2.22223Z" fill="#FFF50D"/>
<path d="M37.7777 17.7778C37.7777 17.7778 39.9999 17.7778 39.9999 20C39.9999 22.2222 37.7777 22.2222 37.7777 22.2222H35.5555C35.5555 22.2222 33.3333 22.2222 33.3333 20C33.3333 17.7778 35.5555 17.7778 35.5555 17.7778H37.7777Z" fill="#FFF50D"/>
<path d="M4.44444 17.7778C4.44444 17.7778 6.66667 17.7778 6.66667 20C6.66667 22.2222 4.44444 22.2222 4.44444 22.2222H2.22222C2.22222 22.2222 0 22.2222 0 20C0 17.7778 2.22222 17.7778 2.22222 17.7778H4.44444Z" fill="#FFF50D"/>
<path d="M10.1344 8.10444C10.1344 8.10444 11.7055 9.67555 10.1344 11.2467C8.56329 12.8178 6.99217 11.2467 6.99217 11.2467L5.41995 9.67555C5.41995 9.67555 3.84884 8.10444 5.41995 6.53221C6.99217 4.9611 8.56328 6.53221 8.56328 6.53221L10.1344 8.10444Z" fill="#FFF50D"/>
<path d="M33.4678 31.4367C33.4678 31.4367 35.0389 33.0078 33.4678 34.5789C31.8966 36.15 30.3255 34.5789 30.3255 34.5789L28.7544 33.0078C28.7544 33.0078 27.1833 31.4367 28.7544 29.8655C30.3255 28.2944 31.8966 29.8655 31.8966 29.8655L33.4678 31.4367Z" fill="#FFF50D"/>
<path d="M33.009 11.2455C33.009 11.2455 31.4378 12.8167 29.8667 11.2455C28.2956 9.67443 29.8667 8.10332 29.8667 8.10332L31.4378 6.53221C31.4378 6.53221 33.009 4.9611 34.5801 6.53221C36.1512 8.10332 34.5801 9.67443 34.5801 9.67443L33.009 11.2455Z" fill="#FFF50D"/>
<path d="M9.67546 34.5789C9.67546 34.5789 8.10434 36.15 6.53323 34.5789C4.96212 33.0078 6.53323 31.4367 6.53323 31.4367L8.10434 29.8655C8.10434 29.8655 9.67546 28.2944 11.2466 29.8655C12.8177 31.4367 11.2466 33.0078 11.2466 33.0078L9.67546 34.5789Z" fill="#FFF50D"/>
<path d="M17.7778 35.5556C17.7778 35.5556 17.7778 33.3333 20.0001 33.3333C22.2223 33.3333 22.2223 35.5556 22.2223 35.5556V37.7778C22.2223 37.7778 22.2223 40 20.0001 40C17.7778 40 17.7778 37.7778 17.7778 37.7778V35.5556Z" fill="#FFF50D"/>
<path d="M31.1111 20C31.1111 13.8633 26.1356 8.88889 20 8.88889C13.8634 8.88889 8.88892 13.8633 8.88892 20C8.88892 26.1356 13.8634 31.1111 20 31.1111C26.1356 31.1111 31.1111 26.1356 31.1111 20Z" fill="#FFF50D"/>
</svg>
